PathFileType	4	(X/Y/Z)	C:\Git\research_data\Projects\squatting_fais\c3dfiles\036\SJ_pre2\markers_experimental.trc
DataRate	CameraRate	NumFrames	NumMarkers	Units	OrigDataRate	OrigDataStartFrame	OrigNumFrames
200.000000	200.000000	4	62	mm	200.000000	209	1677
Frame#	Time	FHD			LBHD			RBHD			C7			T10			CLAV			LSHO			LUUPA			LMUPA			LDUPA			LLEP			LMEP			LRAD			LUL			LRFIN			RSHO			RUPA1			RMUPA			RDUPA			RLEP			RMEP			RRAD			RUL			RUFIN			LASI			RASI			USACR			LSACR			RSACR			LTHI1			LTHI2			LTHI3			LTHI4			LLFC			LMFC			LTIB1			LTIB2			LTIB3			LTIB4			LLMAL			LMMAL			LHEE			LMT1			LMT2			LMT5			RTHI			RTHI2			RTHI3			RTHI4			RLFC			RMFC			RTIB1			RTIB2			RTIB3			RTIB4			RLMAL			RMMAL			RHEE			RMT1			RMT2			RMT5			*61			
		X1	Y1	Z1	X2	Y2	Z2	X3	Y3	Z3	X4	Y4	Z4	X5	Y5	Z5	X6	Y6	Z6	X7	Y7	Z7	X8	Y8	Z8	X9	Y9	Z9	X10	Y10	Z10	X11	Y11	Z11	X12	Y12	Z12	X13	Y13	Z13	X14	Y14	Z14	X15	Y15	Z15	X16	Y16	Z16	X17	Y17	Z17	X18	Y18	Z18	X19	Y19	Z19	X20	Y20	Z20	X21	Y21	Z21	X22	Y22	Z22	X23	Y23	Z23	X24	Y24	Z24	X25	Y25	Z25	X26	Y26	Z26	X27	Y27	Z27	X28	Y28	Z28	X29	Y29	Z29	X30	Y30	Z30	X31	Y31	Z31	X32	Y32	Z32	X33	Y33	Z33	X34	Y34	Z34	X35	Y35	Z35	X36	Y36	Z36	X37	Y37	Z37	X38	Y38	Z38	X39	Y39	Z39	X40	Y40	Z40	X41	Y41	Z41	X42	Y42	Z42	X43	Y43	Z43	X44	Y44	Z44	X45	Y45	Z45	X46	Y46	Z46	X47	Y47	Z47	X48	Y48	Z48	X49	Y49	Z49	X50	Y50	Z50	X51	Y51	Z51	X52	Y52	Z52	X53	Y53	Z53	X54	Y54	Z54	X55	Y55	Z55	X56	Y56	Z56	X57	Y57	Z57	X58	Y58	Z58	X59	Y59	Z59	X60	Y60	Z60	X61	Y61	Z61	X62	Y62	Z62	

210	1.045	-246.4658966064454	1545.323120117188	-938.7667236328127	-412.0957946777345	1484.894775390625	-997.5901489257815	-354.0813293457032	1489.942749023438	-856.347839355469	-439.0293884277345	1371.403442382813	-964.609069824219	-442.0044555664064	1062.008911132813	-948.4675292968752	-294.7371520996094	1312.785278320313	-946.0809326171877	-338.0862731933594	1349.038696289063	-1095.783081054688	-386.4894104003907	1213.773315429688	-1218.744140625	-350.4873962402344	1179.0927734375	-1219.193115234375	-394.0712280273439	1152.2373046875	-1251.122924804688	-394.7185363769532	1096.525512695313	-1263.825927734375	-450.7017211914064	1084.237548828125	-1227.501831054688	-272.1257324218751	899.7950439453127	-1214.201538085938	-301.0247497558594	919.6660766601565	-1153.404052734375	-272.6085205078126	862.506286621094	-1125.748413085938	-353.7641601562501	1353.534057617188	-798.6232910156252	-403.6753234863282	1239.242553710938	-684.4245605468751	-363.0781860351563	1211.767700195313	-678.1088256835939	-401.776580810547	1181.447509765625	-644.4982910156251	-392.9050598144532	1113.859619140625	-618.7680664062501	-446.8101806640626	1081.406860351563	-663.2698364257814	-296.3258056640626	936.842224121094	-728.1884155273439	-257.4856567382813	927.433288574219	-674.6458129882814	-268.8923950195313	887.5906982421877	-763.2630615234376	-254.0541687011719	873.293151855469	-1065.466674804688	-268.2750854492188	883.1802368164065	-798.018005371094	-446.3472290039064	979.4241943359377	-949.3364257812502	-466.1392517089845	952.2619628906252	-974.9754028320315	-468.3849182128907	957.371520996094	-920.0417480468752	-348.6551208496094	745.0792236328126	-1146.932983398438	-328.0510864257813	663.2528076171876	-1145.908569335938	-284.9360656738282	662.1343383789064	-1126.397705078125	-363.5972290039063	615.2539062500001	-1145.55078125	-421.9580383300782	467.654510498047	-1130.479248046875	-413.2750549316407	421.518524169922	-983.910095214844	-354.7150878906251	284.4013977050782	-1076.19921875	-379.2879943847657	251.8090209960938	-1153.96630859375	-354.6991577148438	243.5440673828126	-1115.910034179688	-356.9455261230469	160.5992736816407	-1096.927612304688	-405.5757751464845	83.14881134033205	-1160.458251953125	-385.8443298339845	83.49266052246095	-1077.421264648438	-456.5677795410157	55.87756347656251	-1128.096313476563	-267.9686279296876	54.25280761718751	-1090.95068359375	-253.2600402832032	55.15621948242189	-1138.32470703125	-292.0521850585938	34.59971618652344	-1189.359008789063	-407.3243713378907	709.2874145507814	-731.8167724609376	-372.0994262695313	652.6983642578126	-724.1188354492189	-339.4373168945313	654.8360595703126	-722.7659912109376	-400.1158447265626	575.3024902343751	-732.8602905273439	-396.6298217773439	462.0234375000001	-738.5308837890626	-366.5112915039063	440.8958740234376	-882.2947387695315	-347.8897094726563	309.3541870117188	-757.7135620117189	-415.9907836914064	236.5180206298829	-706.7060546875001	-371.2644653320313	234.2078399658204	-721.5487060546876	-356.8340759277344	181.9615020751953	-746.2778320312501	-423.9689331054689	81.6510467529297	-718.8612670898439	-388.4692993164064	86.67413330078126	-793.7692871093752	-463.4139709472657	53.01516342163087	-757.1732177734376	-266.7168273925782	53.73527145385744	-763.8782348632814	-268.9414367675782	58.45809555053712	-712.9583740234376	-308.1858520507813	35.19446182250977	-668.2192993164064	nan	nan	nan	
211	1.05	-246.5412750244141	1545.308349609375	-938.7087402343752	-412.084686279297	1484.862060546875	-997.6072387695315	-354.1899719238282	1489.954711914063	-856.3773193359377	-439.0300598144532	1371.418701171875	-964.6504516601565	-442.0717163085939	1062.0244140625	-948.4871826171877	-294.7725524902344	1312.77197265625	-946.1086425781252	-338.0609741210938	1349.034912109375	-1095.783935546875	-386.4558105468751	1213.775634765625	-1218.771118164063	-350.4900207519532	1179.128540039063	-1219.205444335938	-394.1135253906251	1152.222412109375	-1251.12744140625	-394.686004638672	1096.529052734375	-1263.817138671875	-450.6965637207032	1084.214233398438	-1227.519897460938	-272.2418518066407	899.7654418945315	-1214.248657226563	-301.0962524414063	919.6663818359377	-1153.45654296875	-272.6674194335938	862.4906005859377	-1125.768676757813	-353.7729492187501	1353.532470703125	-798.631774902344	-403.6926879882814	1239.238159179688	-684.4329223632814	-363.1000366210938	1211.751953125	-678.1424560546876	-401.7847595214845	1181.451171875	-644.5011596679689	-392.9363708496095	1113.857177734375	-618.7768554687501	-446.8267822265626	1081.388427734375	-663.2597656250001	-296.3836975097657	936.847839355469	-728.2592773437501	-257.4773559570313	927.4278564453127	-674.6447143554689	-268.9063720703126	887.6046142578127	-763.2663574218751	-254.0591735839844	873.295837402344	-1065.466918945313	-268.1940917968751	883.2249755859377	-797.9936523437502	-446.3094482421876	979.3861083984377	-949.3284301757815	-466.0586547851564	952.2097778320315	-975.000427246094	-468.4304199218751	957.384948730469	-920.0565185546877	-348.6359863281251	745.1222534179689	-1146.925415039063	-328.0108337402344	663.2051391601564	-1145.937377929688	-284.9795532226563	662.1697387695314	-1126.41357421875	-363.5650329589844	615.2642822265626	-1145.5439453125	-422.0215454101564	467.6692199707032	-1130.463256835938	-413.2947998046876	421.533905029297	-983.9102172851565	-354.7447204589844	284.4575195312501	-1076.234985351563	-378.9548645019532	251.9141998291016	-1154.086547851563	-354.7127075195313	243.4552917480469	-1115.901489257813	-357.0980224609376	160.6737518310547	-1096.903686523438	-405.6250305175782	83.22679901123048	-1160.445678710938	-385.842498779297	83.51000976562501	-1077.396850585938	-456.5292358398439	55.89441299438478	-1128.123168945313	-267.9715881347657	54.24148559570314	-1090.962768554688	-253.2796783447266	55.14232254028322	-1138.310302734375	-292.2630920410157	34.80514907836915	-1189.309692382813	-407.2746582031251	709.2904663085939	-731.8008422851564	-371.8710327148438	652.7947998046876	-723.9193115234376	-339.4360656738282	654.7640380859376	-722.7813720703126	-400.1350402832032	575.3391113281251	-732.8249511718751	-396.6419982910157	462.0554809570314	-738.5180053710939	-366.5199279785157	440.8967590332032	-882.290222167969	-347.8754577636719	309.4050598144532	-757.7280883789064	-416.0076904296876	236.5384063720704	-706.6825561523439	-371.2542419433594	234.1813659667969	-721.5949707031251	-356.8312683105469	181.9801177978516	-746.2796630859376	-423.9785766601564	81.66732788085939	-718.8252563476564	-388.4020996093751	86.70037841796876	-793.7689208984377	-463.4159240722657	53.0448684692383	-757.1779785156251	-266.6418457031251	53.70067596435548	-763.8565063476564	-268.6232604980469	58.22678375244142	-713.0308837890626	-308.1561279296876	35.20529174804688	-668.2252807617189	nan	nan	nan	
212	1.055	-246.5766601562501	1545.362915039063	-938.717224121094	-412.0583801269532	1484.818115234375	-997.6185302734377	-354.2296142578126	1489.924560546875	-856.360046386719	-439.0126953125001	1371.407836914063	-964.6923828125002	-442.0126953125001	1062.005249023438	-948.452331542969	-294.7068481445313	1312.705444335938	-946.0827636718752	-338.0853881835938	1349.000122070313	-1095.801879882813	-386.5990295410157	1213.749633789063	-1218.752197265625	-350.4970703125001	1179.094482421875	-1219.22705078125	-394.096405029297	1152.232666015625	-1251.158935546875	-394.6716918945314	1096.458618164063	-1263.847045898438	-450.7452087402345	1084.20556640625	-1227.462890625	-272.1362915039063	899.8042602539065	-1214.225830078125	-301.1183471679688	919.6506958007815	-1153.454223632813	-272.6644592285157	862.500671386719	-1125.79638671875	-353.7676696777344	1353.53369140625	-798.6343994140627	-403.7186279296876	1239.245727539063	-684.4536743164064	-363.1566772460938	1211.7626953125	-678.1811523437501	-401.7829589843751	1181.46142578125	-644.5006103515626	-392.9401855468751	1113.852661132813	-618.7984008789064	-446.8293457031251	1081.423828125	-663.2560424804689	-296.3136291503907	936.9067382812502	-728.3511352539064	-257.4600524902344	927.452331542969	-674.6929931640626	-268.8697814941407	887.6350708007815	-763.2787475585939	-254.0420532226563	873.2607421875002	-1065.470703125	-268.2863159179688	883.186950683594	-798.013610839844	-446.3200683593751	979.4050903320315	-949.322692871094	-466.1257934570314	952.2626953125002	-974.9865722656252	-468.2719726562501	957.368347167969	-920.032897949219	-348.6624755859376	745.1296997070314	-1146.970336914063	-328.0589904785157	663.1771240234376	-1145.944702148438	-284.9835815429688	662.1394653320314	-1126.422485351563	-363.6506958007813	615.2710571289064	-1145.571533203125	-422.3494262695314	467.7296447753907	-1130.345947265625	-413.2908020019532	421.4710998535157	-983.8933715820315	-354.7979431152344	284.4298706054688	-1076.216674804688	-379.1852111816407	251.8253173828126	-1153.999267578125	-354.7483825683594	243.438461303711	-1115.875732421875	-356.9441528320313	160.6247711181641	-1096.965576171875	-405.6268920898439	83.19070434570314	-1160.480834960938	-385.8411560058595	83.47544860839845	-1077.439575195313	-456.5648803710939	55.85922241210939	-1128.1103515625	-267.9644165039063	54.20588302612306	-1090.962646484375	-253.2957458496094	55.15740966796876	-1138.2958984375	-292.2771301269532	34.82484817504884	-1189.346557617188	-407.2666931152345	709.3007202148439	-731.8441162109376	-371.8665161132813	652.8049926757814	-723.9152832031251	-339.4240112304688	654.8247070312501	-722.7736206054689	-400.090057373047	575.3031616210939	-732.8569335937501	-396.562225341797	462.0333251953126	-738.5263671875001	-366.5158386230469	440.8952941894532	-882.2930908203127	-347.8690490722657	309.3329467773438	-757.7210693359376	-415.9964599609376	236.5488281250001	-706.7124633789064	-371.2647399902344	234.2961120605469	-721.5961303710939	-356.8545532226563	181.9433898925782	-746.2979736328126	-423.9574584960939	81.73372650146486	-718.6835327148439	-388.4435119628907	86.63073730468751	-793.796081542969	-463.4199523925782	53.0565528869629	-757.1771240234376	-266.5889282226563	53.7152557373047	-763.8766479492189	-269.0035400390626	58.44858169555665	-712.9812622070314	-308.1676940917969	35.19935989379884	-668.1901245117189	nan	nan	nan	
213	1.06	-246.6587677001954	1545.338989257813	-938.6921997070315	-411.9867553710939	1484.763427734375	-997.652282714844	-354.2738342285157	1489.929321289063	-856.4077758789065	-439.0127258300782	1371.399780273438	-964.681335449219	-442.0614318847657	1062.01220703125	-948.4619140625002	-294.7633056640626	1312.713012695313	-946.0955810546877	-338.0885620117188	1348.974731445313	-1095.816772460938	-386.5612182617189	1213.744995117188	-1218.784301757813	-350.6367187500001	1179.099731445313	-1219.244018554688	-394.1142883300782	1152.2060546875	-1251.178833007813	-394.6843261718751	1096.44921875	-1263.8701171875	-450.7605285644532	1084.179809570313	-1227.478393554688	-272.2102355957032	899.741882324219	-1214.216674804688	-301.0685729980469	919.6504516601565	-1153.478393554688	-272.6216735839844	862.5103759765627	-1125.863403320313	-353.7640380859376	1353.528076171875	-798.654479980469	-403.6993713378907	1239.198974609375	-684.4647216796876	-363.1240844726563	1211.78076171875	-678.1462402343751	-401.7866210937501	1181.455688476563	-644.5103149414064	-392.8903198242189	1113.845092773438	-618.7842407226564	-446.824920654297	1081.390625	-663.2782592773439	-296.3901672363282	936.837341308594	-728.2651367187501	-257.4532470703126	927.4645996093752	-674.6807250976564	-268.8631286621094	887.6216430664065	-763.2939453125001	-253.9786834716797	873.3154296875002	-1065.540649414063	-268.2489013671876	883.177185058594	-798.073669433594	-446.3081665039064	979.4193115234377	-949.276794433594	-466.1412048339845	952.2585449218752	-974.9801025390627	-468.3651123046876	957.3704833984377	-920.031677246094	-348.7274780273438	745.1727905273439	-1146.961669921875	-327.9866027832032	663.1904907226564	-1145.9521484375	-284.9758911132813	662.1140136718751	-1126.423095703125	-363.5644836425782	615.2147216796876	-1145.563354492188	-422.0234680175782	467.645233154297	-1130.475341796875	-413.2998352050782	421.5218505859376	-983.8984985351565	-354.7672119140626	284.4164123535157	-1076.1884765625	-378.8921203613282	251.8724975585938	-1154.075805664063	-354.7557067871094	243.4330444335938	-1115.955932617188	-357.0487976074219	160.7449340820313	-1096.95654296875	-405.6640930175782	83.20625305175783	-1160.450073242188	-385.8387756347657	83.48898315429689	-1077.43603515625	-456.5553283691407	55.88806533813478	-1128.127563476563	-267.9570007324219	54.21250915527345	-1090.973510742188	-253.2783355712891	55.13375854492189	-1138.322387695313	-292.2963867187501	34.80918502807618	-1189.335693359375	-407.259490966797	709.3007202148439	-731.8173217773439	-371.8699645996094	652.7904663085939	-723.9410400390626	-339.3620300292969	654.8191528320314	-722.7744750976564	-400.0767211914064	575.2969360351564	-732.8433837890626	-396.5685424804689	462.0271301269532	-738.5280761718751	-366.5164184570313	440.899139404297	-882.2900390625002	-347.8125610351563	309.3882446289063	-757.7584228515626	-416.0071716308595	236.5234527587891	-706.6795654296876	-371.2440795898438	234.1880950927735	-721.5873413085939	-356.8525695800782	181.95458984375	-746.2905883789064	-424.0036621093751	81.75308990478517	-718.6403808593751	-388.4601135253907	86.70947265625001	-793.7940063476565	-463.4197387695314	53.05538177490236	-757.1743164062501	-266.6142272949219	53.66152572631837	-763.8465576171876	-268.9313964843751	58.48632049560548	-712.9429931640626	-308.1651916503907	35.22079849243165	-668.2171630859376	nan	nan	nan	
